<?xml version="1.0" encoding="utf-8"?>
<!-- Generator: Adobe Illustrator 24.1.0, SVG Export Plug-In . SVG Version: 6.00 Build 0)  -->
<svg version="1.1" id="Capa_1" xmlns="http://www.w3.org/2000/svg" xmlns:xlink="http://www.w3.org/1999/xlink" x="0px" y="0px"
	 viewBox="0 0 744.1 311" style="enable-background:new 0 0 744.1 311;" xml:space="preserve">
<style type="text/css">
	.st0{fill:#696969;}
	.st1{fill:#5F9EA0;}
	.st2{fill:#ADD8E6;}
	.st3{fill:#F08080;}
	.st4{fill:#708090;}
	.st5{fill:#FFFFFF;}
</style>
<g transform="matrix(.9086 0 0 .9086 -71.062 31.979)">
	<path class="st0" d="M390,71.7c-66.5,0-120.3,39.7-120.3,88.7s53.9,88.7,120.3,88.7c5.2,0,10.4-0.3,15.5-0.7l46,50.8l5.6-65.1
		c32.1-15.9,53.2-43,53.2-73.6C510.3,111.4,456.4,71.7,390,71.7L390,71.7z"/>
	<path class="st0" d="M596,39.8c66.7,0,120.8,39.7,120.8,88.7s-54.1,88.7-120.8,88.7c-5.3,0-10.5-0.3-15.5-0.7l-64.9,54.5l13.1-68.8
		c-32.2-15.9-53.4-43-53.4-73.6C475.2,79.5,529.3,39.8,596,39.8L596,39.8z"/>
	<path class="st0" d="M205.2,45.9c-67,0-121.4,39.7-121.4,88.7s54.3,88.7,121.4,88.7c5.3,0,10.5-0.3,15.6-0.7l88.8,50.8l-36.7-65.1
		c32.4-15.9,53.7-43,53.7-73.6C326.6,85.6,272.2,45.9,205.2,45.9L205.2,45.9z"/>
	<path class="st0" d="M775.2,81.9c-62.6,0-113.3,37.8-113.3,84.4s50.7,84.4,113.3,84.4c4.9,0,16-4,20.8-4.4l76.7,52l-34.3-61.9
		c30.2-15.1,50.2-40.9,50.2-70C888.6,119.6,837.8,81.9,775.2,81.9L775.2,81.9z"/>
	<path class="st1" d="M393.7,65.5c-66.5,0-120.3,39.7-120.3,88.7s53.9,88.7,120.3,88.7c5.2,0,10.4-0.3,15.5-0.7l46,50.8l5.6-65.1
		c32.1-15.9,53.2-43,53.2-73.6C514,105.2,460.2,65.5,393.7,65.5L393.7,65.5z"/>
	<path class="st2" d="M599.7,33.6c66.7,0,120.8,39.7,120.8,88.7S666.4,211,599.7,211c-5.3,0-10.5-0.3-15.5-0.7l-64.9,54.5l13.1-68.8
		c-32.2-15.9-53.4-43-53.4-73.6C478.9,73.4,533,33.6,599.7,33.6L599.7,33.6z"/>
	<path class="st3" d="M208.9,39.8c-67,0-121.4,39.7-121.4,88.7s54.3,88.7,121.4,88.7c5.3,0,10.5-0.3,15.6-0.7l88.8,50.8l-36.7-65.1
		c32.4-15.9,53.7-43,53.7-73.6C330.3,79.5,275.9,39.8,208.9,39.8L208.9,39.8z"/>
	<path class="st4" d="M778.9,75.7c-62.6,0-113.3,37.8-113.3,84.4s50.7,84.4,113.3,84.4c4.9,0,16-4,20.8-4.4l76.7,52l-34.3-61.9
		c30.2-15.1,50.2-40.9,50.2-70C892.3,113.4,841.5,75.7,778.9,75.7L778.9,75.7z"/>
	<g transform="translate(3.6863)">
		<path class="st5" d="M207.1,130.3c12.1,0.9,21.1,3.9,27,9.1c5.9,5.1,8.8,11.6,8.8,19.3c0,6.7-2,12.5-6,17.4c-4,4.8-9.1,8-15.3,9.5
			c-6.2,1.5-14.5,2.2-24.9,2.2h-41.9v-3.6h4.1c4.6,0,7.7-0.6,9.4-1.7c1.8-1.2,2.9-2.9,3.4-5.4c0.5-2.5,0.7-8.2,0.7-17.1V108
			c0-8.7-0.3-14.2-0.8-16.8c-0.5-2.5-1.5-4.2-3.1-5.2c-1.6-0.9-5.1-1.4-10.5-1.4h-2V81l17.5-0.5l20-0.6c29.2,0,43.8,8.4,43.8,25.2
			c0,6.9-2.5,12.5-7.6,16.7C224.7,126,217.2,128.8,207.1,130.3 M187.8,128.8c1.3,0.1,2.4,0.1,3.3,0.1c11.3,0,19.1-1.8,23.2-5.4
			s6.2-9.3,6.2-17.3c0-5.6-0.8-9.9-2.4-12.9c-1.6-3-4.1-5.4-7.3-7c-3.3-1.7-8.8-2.5-16.7-2.5c-2,0-4.1,0.1-6.3,0.2L187.8,128.8
			 M187.8,132.6v23.8c0,10.1,0.2,16.6,0.6,19.3c0.4,2.7,1.3,4.8,2.9,6.2c1.6,1.4,4.8,2.1,9.5,2.1c8.4,0,14.7-2.2,18.9-6.5
			c4.2-4.3,6.3-10.8,6.3-19.4c0-8.8-2.4-15.3-7.2-19.4c-4.7-4.2-13.1-6.3-25-6.3C191.9,132.5,189.9,132.5,187.8,132.6"/>
		<path class="st5" d="M440.1,179.8l-0.8,31.4h-90.7v-3.6h3.1c4.6,0,7.7-0.6,9.4-1.7c1.8-1.2,2.9-2.9,3.4-5.4
			c0.5-2.5,0.8-8.2,0.8-17.1v-52.3c0-8.5-0.3-14-0.8-16.4c-0.5-2.5-1.5-4.2-3.1-5.1c-1.6-0.9-5.1-1.4-10.5-1.4h-2.4v-3.6h51.2v3.6
			h-4.7c-5.2,0-8.7,0.4-10.3,1.3c-1.6,0.8-2.7,2.4-3.3,4.8c-0.5,2.4-0.8,8-0.8,16.8V187c0,7.7,0.2,12.5,0.6,14.5s1.5,3.5,3.4,4.6
			c1.9,1,5.9,1.6,12,1.6h8.1c6.6,0,11.4-0.6,14.6-1.7c3.2-1.2,6.2-3.7,9.1-7.6c2.9-3.9,5.5-10,7.9-18.5L440.1,179.8"/>
		<path class="st5" d="M538.6,125c0-16.5,5.5-29.7,16.5-39.7c11-10,24.8-15,41.2-15c16.6,0,30.5,4.9,41.6,14.8
			c11.2,9.9,16.8,23.3,16.8,40.4c0,16.5-5.4,29.9-16.1,40.1c-10.7,10.2-24.7,15.3-42.1,15.3c-16.9,0-30.8-5.1-41.7-15.3
			C544.1,155.5,538.6,141.9,538.6,125 M556.7,125.6c0,17.2,3.4,30,10.2,38.6c6.9,8.6,17.2,12.9,30.8,12.9c12,0,21.5-4.3,28.5-12.9
			c7-8.6,10.5-21.4,10.5-38.5c0-16.6-3.4-29.3-10.3-38.1c-6.9-8.9-16.8-13.3-29.9-13.3c-12.9,0-22.7,4.3-29.6,13
			C560.1,95.9,556.7,108.7,556.7,125.6"/>
		<path class="st5" d="M785.5,169.4h46v3.8c-5.1,0-8.6,0.5-10.4,1.6c-1.8,1-3,2.7-3.5,5.1c-0.6,2.4-0.9,8.1-0.9,17.3v11.3
			c-1.3-0.2-2.4-0.3-3.4-0.3c-4,0-9.3,1.2-15.9,3.7c-8.9,3.4-17.2,5-24.8,5c-15.3,0-28-5-38.1-15c-10.1-10.1-15.2-22.8-15.2-38.2
			c0-15.3,4.8-28.6,14.5-40.1s22.8-17.2,39.3-17.2c14.3,0,26.1,5.2,35.4,15.7c1.7-3.7,2.8-7.6,3.3-11.9h3.8v35.6h-3.8
			c-1.5-11-5.7-19.6-12.5-26c-6.8-6.4-15-9.6-24.7-9.6c-10,0-18.8,3.7-26.2,11.2c-7.4,7.4-11.2,20.7-11.2,39.7
			c0,18.9,3.6,32.4,10.8,40.3c7.2,7.9,16.1,11.8,26.8,11.8c5.5,0,10.4-1.1,14.9-3.3c4.5-2.3,7.5-5,9.1-8.2c1.6-3.2,2.4-7.2,2.4-12.1
			c0-5.7-0.4-9.5-1.2-11.4c-0.7-1.9-1.9-3.2-3.5-3.9c-1.6-0.7-4.5-1-8.7-1h-2.5L785.5,169.4"/>
	</g>
</g>
</svg>
