<?xml version="1.0" encoding="utf-8"?>
<!-- Generator: Adobe Illustrator 24.1.0, SVG Export Plug-In . SVG Version: 6.00 Build 0)  -->
<svg version="1.1" id="Layer_1" xmlns="http://www.w3.org/2000/svg" xmlns:xlink="http://www.w3.org/1999/xlink" x="0px" y="0px"
	 viewBox="0 0 2000 2000" style="enable-background:new 0 0 2000 2000;" xml:space="preserve">
<style type="text/css">
	.st0{fill:#039ee3;}
</style>
<g id="XMLID_547_">
	<path id="XMLID_615_" class="st0" d="M326.4,368.8c0,0,13.5,305.7,384.2,321.9c269.3,11.8,503.2-31.2,652.2,16.8
		c56.1,18.1,99.2,50.7,122.9,99.5c69,142-36.5,352.5-163.7,424.7c0,0,201.7-30.9,346.1-249.3c130.5-197.4,85.9-398.5-36.5-489.7
		c-198.8-148.1-787.3-28.4-971-95.9c0,0,39.6,64.9,185.3,107.2C845.8,504.1,452,549.6,326.4,368.8z"/>
	<path id="XMLID_622_" class="st0" d="M765.1,757.6l-253.2,808.8h0c178.9,0,337-116.2,390.5-286.9l164.9-526.8
		C972.6,755,869.4,759.3,765.1,757.6z"/>
</g>
</svg>
